<svg width="24" height="24" viewBox="0 0 24 24" fill="none" xmlns="http://www.w3.org/2000/svg">
<path fill-rule="evenodd" clip-rule="evenodd" d="M4.39418 2.10254L0.0179915 11.2947C0.00133884 11.3289 -0.00393828 11.3675 0.00293185 11.4049C0.00980199 11.4423 0.028459 11.4766 0.0561744 11.5026L11.8752 22.8281C11.9088 22.8603 11.9535 22.8783 12 22.8783C12.0465 22.8783 12.0912 22.8603 12.1248 22.8281L23.9438 11.5033C23.9715 11.4773 23.9902 11.4431 23.9971 11.4056C24.0039 11.3682 23.9987 11.3296 23.982 11.2954L19.6058 2.10325C19.5917 2.07238 19.569 2.04623 19.5404 2.02792C19.5118 2.00961 19.4786 1.99992 19.4446 2.00001H4.55681C4.5227 1.99959 4.48919 2.00904 4.46034 2.02724C4.43148 2.04543 4.4085 2.07158 4.39418 2.10254V2.10254V2.10254Z" fill="#50AF95"/>
<path fill-rule="evenodd" clip-rule="evenodd" d="M13.5183 12.2388C13.4335 12.2451 12.9951 12.2713 12.0171 12.2713C11.2393 12.2713 10.6871 12.248 10.4934 12.2388C7.48753 12.1065 5.24393 11.5833 5.24393 10.9568C5.24393 10.3303 7.48753 9.8078 10.4934 9.67345V11.7176C10.6899 11.7318 11.2528 11.765 12.0306 11.765C12.9639 11.765 13.4313 11.7261 13.5155 11.7184V9.67486C16.515 9.8085 18.7536 10.3318 18.7536 10.9568C18.7536 11.5819 16.5157 12.1051 13.5155 12.2381L13.5183 12.2388ZM13.5183 9.46344V7.6342H17.7043V4.84473H6.30739V7.6342H10.4927V9.46274C7.09085 9.619 4.53259 10.2929 4.53259 11.1004C4.53259 11.9079 7.09085 12.581 10.4927 12.738V18.5998H13.5176V12.7359C16.9116 12.5796 19.4656 11.9064 19.4656 11.0997C19.4656 10.2929 16.9138 9.61971 13.5176 9.46274L13.5183 9.46344Z" fill="white"/>
</svg>
