<svg width="20" height="18" viewBox="0 0 20 18" fill="none" xmlns="http://www.w3.org/2000/svg">
<path d="M17.1016 2.53516C15.0625 0.8125 11.9336 1.05859 10 3.0625C8.03125 1.05859 4.90234 0.8125 2.86328 2.53516C0.226562 4.75 0.613281 8.37109 2.51172 10.3047L8.66406 16.5977C9.01562 16.9492 9.47266 17.1602 10 17.1602C10.4922 17.1602 10.9492 16.9492 11.3008 16.5977L17.4883 10.3047C19.3516 8.37109 19.7383 4.75 17.1016 2.53516ZM16.2578 9.10938L10.1055 15.4023C10.0352 15.4727 9.96484 15.4727 9.85938 15.4023L3.70703 9.10938C2.40625 7.80859 2.16016 5.34766 3.95312 3.83594C5.32422 2.67578 7.43359 2.85156 8.76953 4.1875L10 5.45312L11.2305 4.1875C12.5312 2.85156 14.6406 2.67578 16.0117 3.80078C17.8047 5.34766 17.5586 7.80859 16.2578 9.10938Z" fill="#121317"/>
</svg>
