<svg width="24" height="24" viewBox="0 0 24 24" fill="none" xmlns="http://www.w3.org/2000/svg">
<rect width="24" height="24" rx="12" fill="#00C2FF"/>
<path d="M17.7422 14.7812L15 12.0391C14.4375 11.5 13.6406 11.3828 12.9844 11.7109L10.5 9.22656V7.75L7.5 5.5L6 7L8.25 10H9.70312L12.1875 12.5078C11.8828 13.1641 11.9766 13.9609 12.5156 14.5L15.2578 17.2656C15.6094 17.5938 16.1484 17.5938 16.5 17.2656L17.7422 16.0234C18.0703 15.6719 18.0703 15.1328 17.7422 14.7812ZM13.7578 10.7734C14.4375 10.7734 15.0469 11.0312 15.5156 11.5L15.9844 11.9688C16.3359 11.8047 16.6875 11.5703 16.9922 11.2656C17.8594 10.3984 18.1641 9.17969 17.8828 8.07812C17.8359 7.86719 17.5781 7.79688 17.4141 7.9375L15.6797 9.69531L14.0859 9.41406L13.8281 7.82031L15.5625 6.08594C15.7266 5.92188 15.6328 5.66406 15.4219 5.61719C14.3203 5.33594 13.1016 5.64062 12.2344 6.50781C11.5547 7.16406 11.25 8.05469 11.25 8.92188L13.1953 10.8438C13.3828 10.7969 13.5703 10.7734 13.7578 10.7734ZM11.3203 12.6953L10.0078 11.3828L6.42188 14.9453C5.83594 15.5312 5.83594 16.4922 6.42188 17.0781C7.00781 17.6641 7.96875 17.6641 8.55469 17.0781L11.4375 14.1719C11.2734 13.7031 11.2031 13.2109 11.3203 12.6953ZM7.5 16.5625C7.17188 16.5625 6.9375 16.3281 6.9375 16C6.9375 15.6953 7.17188 15.4375 7.5 15.4375C7.80469 15.4375 8.0625 15.6953 8.0625 16C8.0625 16.3281 7.80469 16.5625 7.5 16.5625Z" fill="white"/>
</svg>
